inDegrees=no
num_controls=7
num_derivatives=13
num_iterations=121
num_multipliers=7
num_parameters=0
num_slacks=7
num_states=26
objective=5.856599
objective_accelerations=0.629343
objective_balance=0.012689
objective_effort=0.475860
objective_height=4.615646
objective_ligament=0.123061
solver_duration=1041.866868
status=Solve_Succeeded
success=true
DataType=double
version=3
OpenSimVersion=4.4-2022-07-23-0e9fedc
endheader
time	/jointset/ground_pelvis/pelvis_tilt/value	/jointset/ground_pelvis/pelvis_tx/value	/jointset/ground_pelvis/pelvis_ty/value	/jointset/hip_r/hip_flexion_r/value	/jointset/hip_r/hip_adduction_r/value	/jointset/hip_r/hip_rotation_r/value	/jointset/back/lumbar_extension/value	/jointset/patellofemoral_r/patellar_flexion_r/value	/jointset/knee_r/knee_flexion_r/value	/jointset/knee_r/knee_adduction_r/value	/jointset/knee_r/knee_rotation_r/value	/jointset/ankle_r/ankle_angle_r/value	/jointset/subtalar_r/subtalar_angle_r/value	/jointset/ground_pelvis/pelvis_tilt/speed	/jointset/ground_pelvis/pelvis_tx/speed	/jointset/ground_pelvis/pelvis_ty/speed	/jointset/hip_r/hip_flexion_r/speed	/jointset/hip_r/hip_adduction_r/speed	/jointset/hip_r/hip_rotation_r/speed	/jointset/back/lumbar_extension/speed	/jointset/patellofemoral_r/patellar_flexion_r/speed	/jointset/knee_r/knee_flexion_r/speed	/jointset/knee_r/knee_adduction_r/speed	/jointset/knee_r/knee_rotation_r/speed	/jointset/ankle_r/ankle_angle_r/speed	/jointset/subtalar_r/subtalar_angle_r/speed	/forceset/tau_hip_flexion_r	/forceset/tau_hip_adduction_r	/forceset/tau_hip_rotation_r	/forceset/tau_knee_flexion_r	/forceset/tau_ankle_angle_r	/forceset/tau_subtalar_angle_r	/forceset/tau_lumbar_extension	lambda_cid13_p0	lambda_cid14_p0	lambda_cid14_p1	lambda_cid14_p2	lambda_cid14_p3	lambda_cid14_p4	lambda_cid14_p5	/jointset/ground_pelvis/pelvis_tilt/accel	/jointset/ground_pelvis/pelvis_tx/accel	/jointset/ground_pelvis/pelvis_ty/accel	/jointset/hip_r/hip_flexion_r/accel	/jointset/hip_r/hip_adduction_r/accel	/jointset/hip_r/hip_rotation_r/accel	/jointset/back/lumbar_extension/accel	/jointset/patellofemoral_r/patellar_flexion_r/accel	/jointset/knee_r/knee_flexion_r/accel	/jointset/knee_r/knee_adduction_r/accel	/jointset/knee_r/knee_rotation_r/accel	/jointset/ankle_r/ankle_angle_r/accel	/jointset/subtalar_r/subtalar_angle_r/accel	gamma_cid13_p0	gamma_cid14_p0	gamma_cid14_p1	gamma_cid14_p2	gamma_cid14_p3	gamma_cid14_p4	gamma_cid14_p5
0.5	-0.147786454517317	0.02603679129301715	0.8029789010114076	0.9066921526767479	-0.2516724973623995	-0.04601864815079732	-0.6503847423601113	0.9735264680536692	0.9735264680536557	0.06075126896244073	0.1731064071072781	0.2909769151154892	0.09167567199635504	-0.3855009489349581	-0.2008179084819589	-0.508699161930373	1.905740955331524	-0.04481416631645895	0.5589885738105609	-0.7334170291896835	1.970795512813117	1.970795512813116	-0.04171177678151209	-0.007051822675003571	0.5263303987042833	0.1007188464452711	-0.2033735507754825	-0.004295024851499924	0.03651286537568574	-0.2924320732401233	-0.001473486940939648	-0.007844694072969786	0.2443473836875477	-7.046188158666234	-43.30531444679175	-9.203200240868879	-0.151091486123856	-3.905996678915642	-643.0316625710927	64.90826467676457	0.3263528272340421	0.5939100262792085	-0.3878766321241405	-1.293478193445051	0.2914940917700216	-0.1084253723878311	1.847280334194226	-1.477979030492306	-1.477979030492313	0.4539779210571983	0.031526584701625	-0.5255448531468341	0.3258505157700778	-5.344107948907815e-08	4.93938037873976e-08	1.606979308739724e-06	1.289376196700726e-07	-1.903250520354727e-07	-1.572848820817862e-07	1.043949822939445e-06
0.51	-0.1516242890404145	0.02405846244553474	0.7978736953402475	0.9256818509152368	-0.2521064829373673	-0.04043660874481256	-0.6576260290237007	0.9931575439362159	0.993157543936244	0.06035617886670025	0.1730394259343182	0.2962128820925788	0.09269831237529215	-0.38200466037676	-0.1948336988086034	-0.5122280124732908	1.891939888497998	-0.04197904016161406	0.5573318690069798	-0.7147572372209445	1.955151889631757	1.955151889631756	-0.03735615152077373	-0.006330841475348939	0.5207846925081151	0.1038003939905182	-0.2099796076613479	-0.003632112784918597	0.03729432837007619	-0.2973058480648073	-0.002816572156485894	-0.007549419406654204	0.2504374952585016	-6.147118136178173	-44.04432182790035	-9.307269305407075	-0.01694963385101221	-3.769350589656511	-648.0544961734156	65.3858286507519	0.3704694487950121	0.6027623608321339	-0.318325415160123	-1.462233278643505	0.2802262925705446	-0.207528188838132	1.887788574225225	-1.647710064366303	-1.647710064366512	0.4190888015029184	0.09449340624979768	-0.5808716494120183	0.2982502694140964	-4.655060836465644e-08	5.234082650155199e-08	1.570726064159082e-06	1.688066227889376e-07	-1.914753966215771e-07	-1.431915283231626e-07	1.037704372497891e-06
0.52	-0.1554253201621902	0.02214039287937825	0.7927366139337017	0.944525776015293	-0.2525119763677438	-0.03487378341773419	-0.6646782257784053	1.012624152366487	1.012624152366546	0.06000319181828878	0.1729800764770316	0.3013910343783896	0.0937515569087846	-0.3781402686712858	-0.188766052216775	-0.5150743090075909	1.876586327650942	-0.03911573739765479	0.5551457580236344	-0.6955990474117205	1.937902022354062	1.937902022354061	-0.03329116734322277	-0.005525479529607306	0.5147674604495456	0.1068396773562623	-0.2165856645474081	-0.002969200718227628	0.03807579136394228	-0.3021796228895184	-0.004159657371972354	-0.007254144740141239	0.2565276068292657	-5.313520752171639	-44.78118050053342	-9.404394537830715	0.108583143562219	-3.660784224915634	-653.0515288485741	65.89857551652371	0.3999734566890545	0.610597409973835	-0.251365830400642	-1.603976996151333	0.2971294135928108	-0.2143066083406717	1.946959902291152	-1.799227849759057	-1.799227849759047	0.3958497044198144	0.048402733919053	-0.6198500256269902	0.3173976798694479	-3.950795834468855e-08	5.417868212805699e-08	1.515595369975309e-06	2.032081014614885e-07	-1.903341042892513e-07	-1.281830253120802e-07	1.020410788294662e-06
0.53	-0.1591859515817977	0.02028336209615999	0.7875744958485207	0.963208601685034	-0.2528887107442876	-0.02933534619371964	-0.6715364228924945	1.031910435755653	1.031910435755675	0.05968934949378889	0.1729290303498155	0.3065067629532545	0.09483497731842803	-0.3739275836110031	-0.1826308516964247	-0.5172328615784386	1.859728713625691	-0.03623208803337244	0.5524635538140991	-0.6759703557881078	1.919101878228887	1.919101878228878	-0.02952003449155247	-0.004677914825725248	0.5083081194973075	0.1098297866754393	-0.2230449997351857	-0.002333635038209749	0.03880993346348929	-0.3072239263963011	-0.005425410815563229	-0.007058595294683463	0.2624642390040421	-4.545460812004968	-45.50609913010543	-9.54788384546548	0.2473834749407285	-3.512234006521747	-658.1073132100736	66.34584813021398	0.4406884455373907	0.6163313357662477	-0.1806570629039478	-1.764159417411246	0.2839547412383315	-0.3069996096274903	1.981326735029859	-1.958317119601273	-1.958317119602551	0.3615351503043427	0.1038967210817623	-0.6695367319938909	0.2878843531373743	-3.34249415269132e-08	5.497588894636876e-08	1.456600355362244e-06	2.292587898895662e-07	-1.882107237220583e-07	-1.138239993895362e-07	9.996991490678415e-07
0.54	-0.162902701667827	0.018487953310684	0.7823942808191361	0.9817153500521569	-0.2532366142185073	-0.02382609546825227	-0.6781962325018247	1.051001135818441	1.051001135818423	0.05941197651290136	0.1728866525460762	0.3115557859981977	0.09594791218030341	-0.3693640019571595	-0.1764416526683223	-0.5186936978483505	1.841370867132423	-0.03334955693343365	0.5493084583098947	-0.6559215464591286	1.898785357075535	1.89878535707552	-0.02599729864935376	-0.003791814823493379	0.5014263544662091	0.1127425678024531	-0.2295043349231455	-0.001698069358090878	0.03954407556248927	-0.3122682299031082	-0.006691164259095662	-0.006863045849038789	0.2684008711786422	-3.84251919465322	-46.2297170452287	-9.685018282349358	0.3781719920558289	-3.391896254045188	-663.1496506855493	66.82640089688594	0.4701527754010627	0.6213971115242777	-0.111822570213495	-1.904023489754948	0.2969057607240171	-0.3088848672744059	2.030983443364389	-2.10250325539414	-2.102503255394193	0.346170302525583	0.05610979358901175	-0.7043348413989733	0.3019320414368012	-2.840364654986152e-08	5.462173963646671e-08	1.393329922401879e-06	2.460703061322691e-07	-1.850007774482038e-07	-1.00183543862822e-07	9.752058319425807e-07
0.55	-0.1665721471905937	0.0167546485609175	0.7772029469176872	1.000031221378904	-0.2535557106804232	-0.01835066170585126	-0.6846535349574413	1.069881286908466	1.069881286908393	0.05916854831846612	0.1728531817473141	0.3165339746093298	0.09708957832739072	-0.3644693201527531	-0.1702152782206913	-0.5194552972386212	1.821562291218807	-0.03047493789672694	0.5457029668032172	-0.6354832401844879	1.877006423665864	1.877006423665861	-0.02272797700449241	-0.002899696335890175	0.4941485574615948	0.1155705029012711	-0.2357903667899905	-0.001114319368411612	0.04022993925830041	-0.3174109418591328	-0.00794338676529411	-0.006734856071044572	0.2741471829880702	-3.204095281348638	-46.95554386364729	-9.853925905184751	0.5164613801273273	-3.211701406678468	-668.1766034890461	67.26322334197782	0.5074998062307912	0.6238238210219526	-0.04067939172992895	-2.0554333411146	0.2820659265024911	-0.3977685119728063	2.058609891417598	-2.251348840134838	-2.251348840133171	0.3115464550997712	0.1062555000113794	-0.7489613409342253	0.2704439185441626	-2.396740032836421e-08	5.375759259864128e-08	1.326842632675726e-06	2.577820447246034e-07	-1.811501871204422e-07	-8.683751188817655e-08	9.472853067309295e-07
